<svg id="visual" viewBox="0 0 960 100" width="960" height="100" xmlns="http://www.w3.org/2000/svg" xmlns:xlink="http://www.w3.org/1999/xlink" version="1.1"><rect x="0" y="0" width="960" height="100" fill="#000000"></rect><path d="M0 81L9.3 81.7C18.7 82.3 37.3 83.7 56.2 80.7C75 77.7 94 70.3 112.8 65.7C131.7 61 150.3 59 169.2 60C188 61 207 65 225.8 63.5C244.7 62 263.3 55 282.2 53.7C301 52.3 320 56.7 338.8 58.3C357.7 60 376.3 59 395.2 61C414 63 433 68 451.8 71.5C470.7 75 489.3 77 508.2 75.7C527 74.3 546 69.7 564.8 66.3C583.7 63 602.3 61 621.2 56.8C640 52.7 659 46.3 677.8 46.5C696.7 46.7 715.3 53.3 734.2 60.2C753 67 772 74 790.8 72.8C809.7 71.7 828.3 62.3 847.2 59.5C866 56.7 885 60.3 903.8 66.2C922.7 72 941.3 80 950.7 84L960 88L960 0L950.7 0C941.3 0 922.7 0 903.8 0C885 0 866 0 847.2 0C828.3 0 809.7 0 790.8 0C772 0 753 0 734.2 0C715.3 0 696.7 0 677.8 0C659 0 640 0 621.2 0C602.3 0 583.7 0 564.8 0C546 0 527 0 508.2 0C489.3 0 470.7 0 451.8 0C433 0 414 0 395.2 0C376.3 0 357.7 0 338.8 0C320 0 301 0 282.2 0C263.3 0 244.7 0 225.8 0C207 0 188 0 169.2 0C150.3 0 131.7 0 112.8 0C94 0 75 0 56.2 0C37.3 0 18.7 0 9.3 0L0 0Z" fill="#5a189a"></path><path d="M0 39L9.3 38C18.7 37 37.3 35 56.2 36.8C75 38.7 94 44.3 112.8 48.3C131.7 52.3 150.3 54.7 169.2 51.7C188 48.7 207 40.3 225.8 37.5C244.7 34.7 263.3 37.3 282.2 38.7C301 40 320 40 338.8 41.8C357.7 43.7 376.3 47.3 395.2 45.8C414 44.3 433 37.7 451.8 35.8C470.7 34 489.3 37 508.2 37.8C527 38.7 546 37.3 564.8 35.7C583.7 34 602.3 32 621.2 36.2C640 40.3 659 50.7 677.8 57C696.7 63.3 715.3 65.7 734.2 67.2C753 68.7 772 69.3 790.8 64C809.7 58.7 828.3 47.3 847.2 41.3C866 35.3 885 34.7 903.8 37C922.7 39.3 941.3 44.7 950.7 47.3L960 50L960 0L950.7 0C941.3 0 922.7 0 903.8 0C885 0 866 0 847.2 0C828.3 0 809.7 0 790.8 0C772 0 753 0 734.2 0C715.3 0 696.7 0 677.8 0C659 0 640 0 621.2 0C602.3 0 583.7 0 564.8 0C546 0 527 0 508.2 0C489.3 0 470.7 0 451.8 0C433 0 414 0 395.2 0C376.3 0 357.7 0 338.8 0C320 0 301 0 282.2 0C263.3 0 244.7 0 225.8 0C207 0 188 0 169.2 0C150.3 0 131.7 0 112.8 0C94 0 75 0 56.2 0C37.3 0 18.7 0 9.3 0L0 0Z" fill="#702bb0"></path><path d="M0 51L9.3 47.3C18.7 43.7 37.3 36.3 56.2 32.2C75 28 94 27 112.8 26.2C131.7 25.3 150.3 24.7 169.2 28.3C188 32 207 40 225.8 39C244.7 38 263.3 28 282.2 23.2C301 18.3 320 18.7 338.8 23.3C357.7 28 376.3 37 395.2 42C414 47 433 48 451.8 48.3C470.7 48.7 489.3 48.3 508.2 45C527 41.7 546 35.3 564.8 31.5C583.7 27.7 602.3 26.3 621.2 26.7C640 27 659 29 677.8 31.8C696.7 34.7 715.3 38.3 734.2 37C753 35.7 772 29.3 790.8 25.8C809.7 22.3 828.3 21.7 847.2 23.8C866 26 885 31 903.8 31.8C922.7 32.7 941.3 29.3 950.7 27.7L960 26L960 0L950.7 0C941.3 0 922.7 0 903.8 0C885 0 866 0 847.2 0C828.3 0 809.7 0 790.8 0C772 0 753 0 734.2 0C715.3 0 696.7 0 677.8 0C659 0 640 0 621.2 0C602.3 0 583.7 0 564.8 0C546 0 527 0 508.2 0C489.3 0 470.7 0 451.8 0C433 0 414 0 395.2 0C376.3 0 357.7 0 338.8 0C320 0 301 0 282.2 0C263.3 0 244.7 0 225.8 0C207 0 188 0 169.2 0C150.3 0 131.7 0 112.8 0C94 0 75 0 56.2 0C37.3 0 18.7 0 9.3 0L0 0Z" fill="#863dc6"></path><path d="M0 23L9.3 22.2C18.7 21.3 37.3 19.7 56.2 19.7C75 19.7 94 21.3 112.8 20.7C131.7 20 150.3 17 169.2 16.3C188 15.7 207 17.3 225.8 16.2C244.7 15 263.3 11 282.2 9.2C301 7.3 320 7.7 338.8 8.5C357.7 9.3 376.3 10.7 395.2 13.8C414 17 433 22 451.8 21.8C470.7 21.7 489.3 16.3 508.2 16.3C527 16.3 546 21.7 564.8 21.8C583.7 22 602.3 17 621.2 16C640 15 659 18 677.8 17.8C696.7 17.7 715.3 14.3 734.2 14.3C753 14.3 772 17.7 790.8 20.8C809.7 24 828.3 27 847.2 28C866 29 885 28 903.8 28.3C922.7 28.7 941.3 30.3 950.7 31.2L960 32L960 0L950.7 0C941.3 0 922.7 0 903.8 0C885 0 866 0 847.2 0C828.3 0 809.7 0 790.8 0C772 0 753 0 734.2 0C715.3 0 696.7 0 677.8 0C659 0 640 0 621.2 0C602.3 0 583.7 0 564.8 0C546 0 527 0 508.2 0C489.3 0 470.7 0 451.8 0C433 0 414 0 395.2 0C376.3 0 357.7 0 338.8 0C320 0 301 0 282.2 0C263.3 0 244.7 0 225.8 0C207 0 188 0 169.2 0C150.3 0 131.7 0 112.8 0C94 0 75 0 56.2 0C37.3 0 18.7 0 9.3 0L0 0Z" fill="#9d4edd"></path></svg>