<svg id="visual" viewBox="0 0 960 100" width="960" height="100" xmlns="http://www.w3.org/2000/svg" xmlns:xlink="http://www.w3.org/1999/xlink" version="1.1"><rect x="0" y="0" width="960" height="100" fill="#10002b"></rect><path d="M0 39L26.7 39.5C53.3 40 106.7 41 160 36.3C213.3 31.7 266.7 21.3 320 18.5C373.3 15.7 426.7 20.3 480 24.2C533.3 28 586.7 31 640 34.7C693.3 38.3 746.7 42.7 800 38.7C853.3 34.7 906.7 22.3 933.3 16.2L960 10L960 101L933.3 101C906.7 101 853.3 101 800 101C746.7 101 693.3 101 640 101C586.7 101 533.3 101 480 101C426.7 101 373.3 101 320 101C266.7 101 213.3 101 160 101C106.7 101 53.3 101 26.7 101L0 101Z" fill="#3c096c"></path><path d="M0 43L26.7 46.8C53.3 50.7 106.7 58.3 160 61.8C213.3 65.3 266.7 64.7 320 59C373.3 53.3 426.7 42.7 480 38.2C533.3 33.7 586.7 35.3 640 40.3C693.3 45.3 746.7 53.7 800 54.8C853.3 56 906.7 50 933.3 47L960 44L960 101L933.3 101C906.7 101 853.3 101 800 101C746.7 101 693.3 101 640 101C586.7 101 533.3 101 480 101C426.7 101 373.3 101 320 101C266.7 101 213.3 101 160 101C106.7 101 53.3 101 26.7 101L0 101Z" fill="#501587"></path><path d="M0 47L26.7 51C53.3 55 106.7 63 160 65C213.3 67 266.7 63 320 60.3C373.3 57.7 426.7 56.3 480 57.5C533.3 58.7 586.7 62.3 640 66C693.3 69.7 746.7 73.3 800 71.3C853.3 69.3 906.7 61.7 933.3 57.8L960 54L960 101L933.3 101C906.7 101 853.3 101 800 101C746.7 101 693.3 101 640 101C586.7 101 533.3 101 480 101C426.7 101 373.3 101 320 101C266.7 101 213.3 101 160 101C106.7 101 53.3 101 26.7 101L0 101Z" fill="#6521a3"></path><path d="M0 91L26.7 88.3C53.3 85.7 106.7 80.3 160 76.8C213.3 73.3 266.7 71.7 320 71.8C373.3 72 426.7 74 480 75C533.3 76 586.7 76 640 74.3C693.3 72.7 746.7 69.3 800 68C853.3 66.7 906.7 67.3 933.3 67.7L960 68L960 101L933.3 101C906.7 101 853.3 101 800 101C746.7 101 693.3 101 640 101C586.7 101 533.3 101 480 101C426.7 101 373.3 101 320 101C266.7 101 213.3 101 160 101C106.7 101 53.3 101 26.7 101L0 101Z" fill="#7b2cbf"></path></svg>