<?xml version="1.0" encoding="UTF-8"?>
<!DOCTYPE svg PUBLIC "-//W3C//DTD SVG 1.1//EN" "http://www.w3.org/Graphics/SVG/1.1/DTD/svg11.dtd">
<svg version="1.1" xmlns="http://www.w3.org/2000/svg" xmlns:xlink="http://www.w3.org/1999/xlink" x="0" y="0" width="205" height="546" viewBox="0, 0, 205, 546">
  <g id="Layer_1">
    <path d="M185.485,48.419 C176.566,64.737 166.559,85.832 156.316,109.836 C158.014,109.004 159.792,108.539 161.576,108.539 C162.674,108.539 163.754,108.714 164.781,109.061 C171.72,111.405 174.745,121.073 171.524,130.612 C168.825,138.608 162.567,144.191 156.304,144.191 C155.205,144.191 154.125,144.015 153.099,143.667 C149.528,142.463 147.004,139.311 145.826,135.242 C142.899,142.559 139.977,150.056 137.078,157.698 L167.917,168.108 C180.235,113.725 184.494,69.556 185.485,48.419" fill="#C6C9CA"/>
    <path d="M77.565,378.256 C80.496,379.652 83.18,381.327 85.501,383.203 L87.395,379.475 C99.03,356.615 113.579,328.023 127.275,295.591 L95.867,284.989 C86.985,318.67 80.387,350.839 77.565,378.256" fill="#C6C9CA"/>
    <path d="M96.521,282.52 L128.266,293.236 C131.472,285.573 134.627,277.7 137.681,269.643 L120.684,263.905 L145.544,190.264 L161.197,195.55 C163.434,187.039 165.478,178.713 167.34,170.603 L136.179,160.084 C121.424,199.214 107.344,241.902 96.521,282.52" fill="#C6C9CA"/>
    <path d="M123.914,262.306 L138.583,267.257 C141.071,260.62 143.49,253.863 145.809,246.992 C151.461,230.245 156.34,213.834 160.552,198.019 L147.143,193.494 L123.914,262.306" fill="#C6C9CA"/>
    <path d="M79.656,386.911 C79.97,387.07 80.093,387.454 79.934,387.767 L77.296,392.933 C77.893,393.245 78.473,393.563 79.024,393.891 L82.324,388.303 C82.504,387.999 82.895,387.901 83.196,388.078 C83.5,388.258 83.601,388.648 83.423,388.949 L80.098,394.578 C80.612,394.92 81.104,395.265 81.56,395.621 L85.466,388.991 C76.878,382.158 68.212,379.331 56.633,379.448 L55.665,387.015 C56.051,387.035 56.45,387.07 56.85,387.102 L57.689,380.508 C57.734,380.16 58.056,379.911 58.403,379.956 C58.752,380 58.999,380.319 58.954,380.67 L58.118,387.229 C58.776,387.305 59.448,387.393 60.133,387.501 L61.202,381.623 C61.265,381.277 61.601,381.055 61.944,381.11 C62.29,381.173 62.519,381.504 62.457,381.851 L61.392,387.71 C62.066,387.832 62.745,387.964 63.432,388.11 L64.716,382.738 C64.799,382.394 65.146,382.182 65.485,382.264 C65.826,382.347 66.038,382.69 65.957,383.034 L64.674,388.391 C65.353,388.551 66.033,388.722 66.713,388.909 L68.234,383.85 C68.334,383.512 68.686,383.317 69.028,383.422 C69.364,383.524 69.554,383.88 69.455,384.216 L67.941,389.253 C68.616,389.449 69.288,389.661 69.954,389.88 L71.752,384.963 C71.874,384.632 72.239,384.463 72.57,384.582 C72.901,384.704 73.07,385.069 72.948,385.4 L71.162,390.288 C71.826,390.522 72.476,390.771 73.118,391.024 L75.275,386.075 C75.415,385.754 75.787,385.602 76.113,385.746 C76.435,385.886 76.583,386.262 76.442,386.583 L74.296,391.513 C74.932,391.784 75.556,392.065 76.161,392.356 L78.799,387.187 C78.958,386.876 79.339,386.749 79.656,386.911" fill="#AFB4B5"/>
    <path d="M153.914,141.254 C154.678,141.512 155.482,141.642 156.303,141.642 C161.408,141.642 166.792,136.66 169.111,129.798 C171.88,121.588 169.573,113.368 163.965,111.475 C163.202,111.218 162.397,111.087 161.576,111.087 C156.472,111.087 151.086,116.069 148.769,122.931 C145.999,131.141 148.306,139.361 153.914,141.254" fill="#C6C9CA"/>
    <path d="M124.553,376.725 L112.91,350.081 L106.679,361.951 L124.553,376.725" fill="#FFFFFE"/>
    <path d="M32.796,346.523 L55.981,346.961 L58.987,333.896 L32.796,346.523" fill="#FFFFFE"/>
    <path d="M181.768,49.13 C180.679,50.706 179.41,52.514 178.094,54.599 C175.681,58.285 172.887,62.735 169.796,67.837 C169.424,68.45 169.052,69.068 168.671,69.7 C165.135,75.593 161.23,82.297 157.193,89.733 C153.135,97.156 148.845,105.256 144.469,113.909 C142.295,118.242 140.019,122.673 137.829,127.268 C135.597,131.845 133.34,136.531 131.164,141.352 C129.29,145.434 127.386,149.584 125.531,153.799 C125.201,154.548 124.862,155.283 124.537,156.036 C124.522,156.07 124.505,156.104 124.491,156.138 C122.312,161.088 120.085,166.089 118.014,171.203 C115.884,176.333 113.715,181.496 111.689,186.74 C109.631,191.971 107.52,197.206 105.588,202.509 C101.607,213.076 97.921,223.738 94.4,234.29 C90.887,244.801 87.844,255.373 85.042,265.56 C82.206,275.758 79.823,285.71 77.679,295.166 C75.514,304.618 73.68,313.599 72.026,321.892 C70.368,330.187 69.015,337.819 67.862,344.591 C66.73,351.364 65.744,357.269 64.933,362.133 C63.937,368.435 63.221,372.977 62.838,375.406 C62.713,376.205 62.622,376.775 62.571,377.101 C62.536,377.317 62.518,377.437 62.518,377.437 C62.518,377.437 62.543,377.317 62.587,377.103 C62.656,376.78 62.772,376.213 62.938,375.419 C63.438,373.008 64.374,368.511 65.67,362.269 C66.669,357.441 67.883,351.583 69.274,344.861 C70.726,338.155 72.364,330.59 74.148,322.338 C75.992,314.1 78.033,305.188 80.413,295.819 C81.627,291.02 82.908,286.093 84.256,281.07 C84.465,280.286 84.687,279.488 84.901,278.699 C85.991,274.673 87.115,270.601 88.3,266.471 C91.205,256.322 94.393,245.968 97.911,235.444 C101.446,224.973 105.187,214.36 109.16,203.847 C111.064,198.556 113.145,193.335 115.176,188.117 C117.171,182.885 119.314,177.735 121.416,172.615 C123.49,167.484 125.652,162.437 127.778,157.446 C127.803,157.387 127.829,157.331 127.854,157.273 C128.185,156.481 128.529,155.711 128.865,154.925 C130.626,150.801 132.432,146.736 134.209,142.736 C136.319,137.903 138.538,133.218 140.631,128.596 C142.709,123.965 144.875,119.498 146.944,115.129 C151.109,106.405 155.2,98.229 159.076,90.734 C159.191,90.51 159.306,90.291 159.421,90.067 C167.042,75.388 173.691,63.288 178.717,54.99 C179.959,52.861 181.142,51.013 182.141,49.382 C183.141,47.751 184,46.367 184.747,45.277 C186.207,43.076 186.985,41.902 186.985,41.902 C186.985,41.902 186.149,43.034 184.579,45.159 C183.779,46.21 182.853,47.549 181.768,49.13" fill="#FFFFFE"/>
    <path d="M74.67,399.75 C96.816,472.912 17.897,542.719 1.775,544 C44.524,495.562 0.075,440.329 57.713,394.026 C59.391,392.93 72.991,394.859 74.67,399.75" fill="#D03F44"/>
    <path d="M63.521,394.028 C50.728,413.917 35.072,458.545 35.811,491.165 C56.342,460.22 68.529,418.34 70.744,396.225 L63.521,394.028" fill="#FAE938"/>
    <path d="M184.747,45.277 C184,46.366 183.141,47.751 182.141,49.382 C181.142,51.013 179.959,52.862 178.717,54.99 C173.691,63.288 167.042,75.387 159.421,90.067 C159.306,90.291 159.191,90.509 159.075,90.735 C155.199,98.229 151.107,106.404 146.945,115.13 C144.875,119.497 142.709,123.964 140.631,128.596 C138.538,133.219 136.319,137.904 134.209,142.736 C132.432,146.735 130.626,150.801 128.863,154.926 C128.529,155.71 128.185,156.482 127.853,157.272 C127.829,157.33 127.803,157.388 127.779,157.447 C125.652,162.438 123.49,167.485 121.416,172.614 C119.314,177.734 117.171,182.885 115.176,188.117 C113.145,193.336 111.064,198.557 109.16,203.848 C105.186,214.361 101.448,224.973 97.911,235.444 C94.393,245.968 91.205,256.322 88.3,266.471 C87.115,270.604 85.991,274.674 84.901,278.699 C84.687,279.488 84.465,280.286 84.255,281.07 C82.908,286.093 81.626,291.02 80.413,295.819 C78.033,305.188 75.992,314.1 74.148,322.338 C72.362,330.59 70.726,338.155 69.275,344.861 C67.883,351.583 66.669,357.441 65.67,362.269 C64.373,368.511 63.438,373.008 62.937,375.419 C62.772,376.213 62.656,376.78 62.587,377.103 C62.542,377.317 62.516,377.437 62.516,377.437 C62.516,377.437 62.536,377.317 62.571,377.101 C62.621,376.775 62.713,376.205 62.838,375.406 C63.222,372.977 63.937,368.435 64.931,362.133 C65.744,357.269 66.73,351.367 67.862,344.591 C69.015,337.819 70.368,330.187 72.026,321.892 C73.68,313.599 75.514,304.618 77.679,295.166 C79.822,285.71 82.206,275.758 85.043,265.56 C87.844,255.371 90.887,244.8 94.399,234.291 C97.921,223.737 101.607,213.075 105.588,202.51 C107.52,197.206 109.631,191.971 111.689,186.74 C113.715,181.495 115.885,176.333 118.014,171.204 C120.085,166.089 122.313,161.088 124.491,156.138 C124.505,156.104 124.522,156.071 124.537,156.036 C124.862,155.282 125.2,154.548 125.531,153.8 C127.386,149.586 129.289,145.434 131.164,141.351 C133.34,136.532 135.597,131.844 137.829,127.268 C140.019,122.673 142.294,118.241 144.469,113.909 C148.845,105.258 153.135,97.155 157.193,89.732 C161.23,82.297 165.135,75.593 168.671,69.7 C169.051,69.067 169.424,68.45 169.795,67.838 C172.887,62.734 175.681,58.284 178.094,54.599 C179.41,52.514 180.678,50.706 181.768,49.13 C182.853,47.55 183.779,46.209 184.579,45.159 C186.148,43.035 186.985,41.903 186.985,41.903 C186.985,41.903 186.208,43.076 184.747,45.277 M167.917,168.107 L137.078,157.698 C139.977,150.055 142.899,142.559 145.826,135.241 C147.004,139.31 149.528,142.463 153.099,143.668 C154.125,144.015 155.205,144.19 156.304,144.19 C162.567,144.19 168.825,138.607 171.525,130.613 C174.745,121.072 171.72,111.404 164.781,109.062 C163.754,108.714 162.674,108.538 161.576,108.538 C159.793,108.538 158.015,109.005 156.316,109.835 C166.558,85.833 176.566,64.737 185.485,48.418 C184.494,69.556 180.235,113.725 167.917,168.107 M161.197,195.549 L145.544,190.265 L120.684,263.905 L137.682,269.642 C134.627,277.7 131.473,285.574 128.266,293.236 L96.521,282.52 C107.343,241.901 121.424,199.214 136.179,160.083 L167.34,170.602 C165.478,178.713 163.434,187.04 161.197,195.549 M145.809,246.992 C143.49,253.863 141.071,260.62 138.583,267.257 L123.914,262.306 L147.143,193.494 L160.551,198.019 C156.342,213.836 151.461,230.245 145.809,246.992 M87.397,379.475 L85.501,383.203 C83.18,381.327 80.496,379.652 77.565,378.256 C80.387,350.839 86.984,318.67 95.868,284.989 L127.274,295.591 C113.58,328.023 99.031,356.615 87.397,379.475 M148.769,122.931 C151.087,116.069 156.471,111.087 161.576,111.087 C162.397,111.087 163.202,111.218 163.965,111.475 C169.573,113.368 171.88,121.588 169.11,129.798 C166.792,136.66 161.408,141.642 156.304,141.642 C155.482,141.642 154.678,141.511 153.914,141.254 C148.306,139.36 145.999,131.141 148.769,122.931 M81.559,395.621 C81.106,395.265 80.611,394.92 80.099,394.578 L83.423,388.949 C83.601,388.648 83.501,388.258 83.198,388.078 C82.895,387.901 82.503,388.001 82.325,388.303 L79.023,393.891 C78.476,393.563 77.893,393.245 77.297,392.933 L79.934,387.767 C80.094,387.454 79.969,387.07 79.655,386.911 C79.339,386.749 78.958,386.876 78.799,387.187 L76.161,392.356 C75.556,392.065 74.932,391.784 74.294,391.513 L76.443,386.583 C76.584,386.262 76.436,385.886 76.114,385.746 C75.788,385.602 75.415,385.754 75.275,386.075 L73.118,391.027 C72.476,390.771 71.825,390.522 71.162,390.288 L72.95,385.4 C73.07,385.069 72.901,384.704 72.57,384.582 C72.239,384.463 71.874,384.632 71.751,384.963 L69.954,389.88 C69.287,389.661 68.616,389.449 67.941,389.253 L69.455,384.216 C69.557,383.88 69.365,383.524 69.029,383.422 C68.686,383.317 68.334,383.512 68.235,383.85 L66.713,388.909 C66.034,388.722 65.353,388.551 64.674,388.391 L65.958,383.034 C66.039,382.69 65.827,382.347 65.485,382.264 C65.146,382.182 64.801,382.394 64.717,382.738 L63.431,388.11 C62.745,387.964 62.064,387.832 61.392,387.71 L62.457,381.851 C62.52,381.504 62.29,381.173 61.944,381.11 C61.601,381.055 61.265,381.277 61.202,381.623 L60.135,387.501 C59.449,387.393 58.778,387.306 58.118,387.229 L58.955,380.67 C59,380.319 58.752,380 58.403,379.956 C58.054,379.911 57.736,380.16 57.691,380.508 L56.849,387.102 C56.449,387.07 56.051,387.035 55.665,387.015 L56.632,379.448 C68.211,379.331 76.876,382.158 85.465,388.991 L81.559,395.621 z M124.551,376.725 L106.679,361.951 L112.912,350.081 L124.551,376.725 z M55.981,346.961 L32.796,346.523 L58.986,333.896 L55.981,346.961 z M186.467,34.275 C180.257,40.155 163.917,65.875 150.829,89.256 C133.618,120.002 108.932,168.998 89.082,227.801 C77.58,261.88 69.616,295.24 63.584,324.656 L24.418,346.877 L23.707,354.717 L57.362,356.792 C57.298,357.152 57.229,357.513 57.165,357.872 L23.826,355.762 L23.666,358.305 L56.699,360.395 C56.148,363.399 55.61,366.338 55.093,369.187 L53.751,376.531 C53.677,376.934 53.801,377.345 54.081,377.641 C54.149,377.714 54.227,377.775 54.308,377.828 C54.287,377.897 54.251,377.96 54.243,378.034 L52.96,388.081 C52.916,388.441 53.026,388.805 53.264,389.079 C53.504,389.352 53.849,389.512 54.21,389.516 C62.473,389.603 75.688,393.466 81.009,398.503 C81.248,398.729 81.562,398.853 81.885,398.853 C81.945,398.853 82.004,398.848 82.063,398.842 C82.447,398.787 82.786,398.56 82.982,398.226 L88.218,389.34 C88.333,389.145 88.37,388.93 88.375,388.716 C88.43,388.636 88.495,388.558 88.541,388.469 L91.939,381.787 C93.397,378.923 94.903,375.962 96.443,372.923 L124.787,391.684 L126.192,389.558 L97.603,370.634 C97.787,370.27 97.971,369.904 98.158,369.536 L126.901,388.765 L131.086,382.096 L112.948,339.616 C125.762,312.909 139.342,282.084 150.638,248.622 C182.958,152.877 190.247,67.743 190.792,42.433 L202.116,2.164 L186.467,34.275" fill="#1A1919"/>
  </g>
</svg>
