<svg id="visual" viewBox="0 0 960 100" width="960" height="100" xmlns="http://www.w3.org/2000/svg" xmlns:xlink="http://www.w3.org/1999/xlink" version="1.1"><rect x="0" y="0" width="960" height="100" fill="#000000"></rect><path d="M0 24L26.7 25C53.3 26 106.7 28 160 32.3C213.3 36.7 266.7 43.3 320 41.3C373.3 39.3 426.7 28.7 480 22C533.3 15.3 586.7 12.7 640 15C693.3 17.3 746.7 24.7 800 28.2C853.3 31.7 906.7 31.3 933.3 31.2L960 31L960 101L933.3 101C906.7 101 853.3 101 800 101C746.7 101 693.3 101 640 101C586.7 101 533.3 101 480 101C426.7 101 373.3 101 320 101C266.7 101 213.3 101 160 101C106.7 101 53.3 101 26.7 101L0 101Z" fill="#3c096c"></path><path d="M0 57L26.7 54.3C53.3 51.7 106.7 46.3 160 44.8C213.3 43.3 266.7 45.7 320 48.7C373.3 51.7 426.7 55.3 480 53.3C533.3 51.3 586.7 43.7 640 41.8C693.3 40 746.7 44 800 45.8C853.3 47.7 906.7 47.3 933.3 47.2L960 47L960 101L933.3 101C906.7 101 853.3 101 800 101C746.7 101 693.3 101 640 101C586.7 101 533.3 101 480 101C426.7 101 373.3 101 320 101C266.7 101 213.3 101 160 101C106.7 101 53.3 101 26.7 101L0 101Z" fill="#290c57"></path><path d="M0 59L26.7 57.3C53.3 55.7 106.7 52.3 160 52.3C213.3 52.3 266.7 55.7 320 59.2C373.3 62.7 426.7 66.3 480 66.3C533.3 66.3 586.7 62.7 640 58.7C693.3 54.7 746.7 50.3 800 48.2C853.3 46 906.7 46 933.3 46L960 46L960 101L933.3 101C906.7 101 853.3 101 800 101C746.7 101 693.3 101 640 101C586.7 101 533.3 101 480 101C426.7 101 373.3 101 320 101C266.7 101 213.3 101 160 101C106.7 101 53.3 101 26.7 101L0 101Z" fill="#180b41"></path><path d="M0 89L26.7 86.5C53.3 84 106.7 79 160 77.7C213.3 76.3 266.7 78.7 320 81.2C373.3 83.7 426.7 86.3 480 86.5C533.3 86.7 586.7 84.3 640 84.7C693.3 85 746.7 88 800 87.7C853.3 87.3 906.7 83.7 933.3 81.8L960 80L960 101L933.3 101C906.7 101 853.3 101 800 101C746.7 101 693.3 101 640 101C586.7 101 533.3 101 480 101C426.7 101 373.3 101 320 101C266.7 101 213.3 101 160 101C106.7 101 53.3 101 26.7 101L0 101Z" fill="#10002b"></path></svg>