<svg id="visual" viewBox="0 0 960 100" width="960" height="100" xmlns="http://www.w3.org/2000/svg" xmlns:xlink="http://www.w3.org/1999/xlink" version="1.1"><rect x="0" y="0" width="960" height="100" fill="#000000"></rect><path d="M0 38L20 32.5C40 27 80 16 120 16.2C160 16.3 200 27.7 240 27.7C280 27.7 320 16.3 360 15.3C400 14.3 440 23.7 480 29C520 34.3 560 35.7 600 33.8C640 32 680 27 720 24.5C760 22 800 22 840 23.2C880 24.3 920 26.7 940 27.8L960 29L960 101L940 101C920 101 880 101 840 101C800 101 760 101 720 101C680 101 640 101 600 101C560 101 520 101 480 101C440 101 400 101 360 101C320 101 280 101 240 101C200 101 160 101 120 101C80 101 40 101 20 101L0 101Z" fill="#0d00a4"></path><path d="M0 52L20 47.7C40 43.3 80 34.7 120 31.2C160 27.7 200 29.3 240 29.7C280 30 320 29 360 34C400 39 440 50 480 50.2C520 50.3 560 39.7 600 35.2C640 30.7 680 32.3 720 32.7C760 33 800 32 840 33.2C880 34.3 920 37.7 940 39.3L960 41L960 101L940 101C920 101 880 101 840 101C800 101 760 101 720 101C680 101 640 101 600 101C560 101 520 101 480 101C440 101 400 101 360 101C320 101 280 101 240 101C200 101 160 101 120 101C80 101 40 101 20 101L0 101Z" fill="#001e8e"></path><path d="M0 72L20 68.5C40 65 80 58 120 56.5C160 55 200 59 240 60.5C280 62 320 61 360 61.5C400 62 440 64 480 65.7C520 67.3 560 68.7 600 68.2C640 67.7 680 65.3 720 62.2C760 59 800 55 840 56.3C880 57.7 920 64.3 940 67.7L960 71L960 101L940 101C920 101 880 101 840 101C800 101 760 101 720 101C680 101 640 101 600 101C560 101 520 101 480 101C440 101 400 101 360 101C320 101 280 101 240 101C200 101 160 101 120 101C80 101 40 101 20 101L0 101Z" fill="#002774"></path><path d="M0 71L20 72.8C40 74.7 80 78.3 120 77.5C160 76.7 200 71.3 240 69.7C280 68 320 70 360 72C400 74 440 76 480 77.5C520 79 560 80 600 81.3C640 82.7 680 84.3 720 82.5C760 80.7 800 75.3 840 72.7C880 70 920 70 940 70L960 70L960 101L940 101C920 101 880 101 840 101C800 101 760 101 720 101C680 101 640 101 600 101C560 101 520 101 480 101C440 101 400 101 360 101C320 101 280 101 240 101C200 101 160 101 120 101C80 101 40 101 20 101L0 101Z" fill="#002855"></path></svg>