<svg id="visual" viewBox="0 0 960 100" width="960" height="100" xmlns="http://www.w3.org/2000/svg" xmlns:xlink="http://www.w3.org/1999/xlink" version="1.1"><rect x="0" y="0" width="960" height="100" fill="#000000"></rect><path d="M0 63L20 66.5C40 70 80 77 120 78.2C160 79.3 200 74.7 240 75.3C280 76 320 82 360 84.3C400 86.7 440 85.3 480 79.8C520 74.3 560 64.7 600 62.2C640 59.7 680 64.3 720 66.5C760 68.7 800 68.3 840 67C880 65.7 920 63.3 940 62.2L960 61L960 0L940 0C920 0 880 0 840 0C800 0 760 0 720 0C680 0 640 0 600 0C560 0 520 0 480 0C440 0 400 0 360 0C320 0 280 0 240 0C200 0 160 0 120 0C80 0 40 0 20 0L0 0Z" fill="#0d00a4"></path><path d="M0 48L20 50.3C40 52.7 80 57.3 120 58.5C160 59.7 200 57.3 240 58.8C280 60.3 320 65.7 360 67.3C400 69 440 67 480 64.2C520 61.3 560 57.7 600 54.2C640 50.7 680 47.3 720 47C760 46.7 800 49.3 840 50.3C880 51.3 920 50.7 940 50.3L960 50L960 0L940 0C920 0 880 0 840 0C800 0 760 0 720 0C680 0 640 0 600 0C560 0 520 0 480 0C440 0 400 0 360 0C320 0 280 0 240 0C200 0 160 0 120 0C80 0 40 0 20 0L0 0Z" fill="#001e8e"></path><path d="M0 30L20 33.3C40 36.7 80 43.3 120 42.8C160 42.3 200 34.7 240 32.5C280 30.3 320 33.7 360 35.3C400 37 440 37 480 39C520 41 560 45 600 45.7C640 46.3 680 43.7 720 41.5C760 39.3 800 37.7 840 39C880 40.3 920 44.7 940 46.8L960 49L960 0L940 0C920 0 880 0 840 0C800 0 760 0 720 0C680 0 640 0 600 0C560 0 520 0 480 0C440 0 400 0 360 0C320 0 280 0 240 0C200 0 160 0 120 0C80 0 40 0 20 0L0 0Z" fill="#002774"></path><path d="M0 10L20 13.8C40 17.7 80 25.3 120 27.8C160 30.3 200 27.7 240 25.3C280 23 320 21 360 20.2C400 19.3 440 19.7 480 19C520 18.3 560 16.7 600 18C640 19.3 680 23.7 720 23.5C760 23.3 800 18.7 840 17.2C880 15.7 920 17.3 940 18.2L960 19L960 0L940 0C920 0 880 0 840 0C800 0 760 0 720 0C680 0 640 0 600 0C560 0 520 0 480 0C440 0 400 0 360 0C320 0 280 0 240 0C200 0 160 0 120 0C80 0 40 0 20 0L0 0Z" fill="#002855"></path></svg>