<svg id="visual" viewBox="0 0 960 100" width="960" height="100" xmlns="http://www.w3.org/2000/svg" xmlns:xlink="http://www.w3.org/1999/xlink" version="1.1"><rect x="0" y="0" width="960" height="100" fill="#000000"></rect><path d="M0 84L26.7 79.2C53.3 74.3 106.7 64.7 160 65.3C213.3 66 266.7 77 320 75.7C373.3 74.3 426.7 60.7 480 60.3C533.3 60 586.7 73 640 72.7C693.3 72.3 746.7 58.7 800 55.8C853.3 53 906.7 61 933.3 65L960 69L960 0L933.3 0C906.7 0 853.3 0 800 0C746.7 0 693.3 0 640 0C586.7 0 533.3 0 480 0C426.7 0 373.3 0 320 0C266.7 0 213.3 0 160 0C106.7 0 53.3 0 26.7 0L0 0Z" fill="#240046"></path><path d="M0 65L26.7 62.7C53.3 60.3 106.7 55.7 160 53.7C213.3 51.7 266.7 52.3 320 54.7C373.3 57 426.7 61 480 59.8C533.3 58.7 586.7 52.3 640 48.5C693.3 44.7 746.7 43.3 800 41.5C853.3 39.7 906.7 37.3 933.3 36.2L960 35L960 0L933.3 0C906.7 0 853.3 0 800 0C746.7 0 693.3 0 640 0C586.7 0 533.3 0 480 0C426.7 0 373.3 0 320 0C266.7 0 213.3 0 160 0C106.7 0 53.3 0 26.7 0L0 0Z" fill="#3f0b6c"></path><path d="M0 39L26.7 38.8C53.3 38.7 106.7 38.3 160 40.3C213.3 42.3 266.7 46.7 320 43.8C373.3 41 426.7 31 480 27.7C533.3 24.3 586.7 27.7 640 31.2C693.3 34.7 746.7 38.3 800 40.8C853.3 43.3 906.7 44.7 933.3 45.3L960 46L960 0L933.3 0C906.7 0 853.3 0 800 0C746.7 0 693.3 0 640 0C586.7 0 533.3 0 480 0C426.7 0 373.3 0 320 0C266.7 0 213.3 0 160 0C106.7 0 53.3 0 26.7 0L0 0Z" fill="#5d1b94"></path><path d="M0 31L26.7 29.7C53.3 28.3 106.7 25.7 160 21.7C213.3 17.7 266.7 12.3 320 13.2C373.3 14 426.7 21 480 23.8C533.3 26.7 586.7 25.3 640 25.3C693.3 25.3 746.7 26.7 800 26.7C853.3 26.7 906.7 25.3 933.3 24.7L960 24L960 0L933.3 0C906.7 0 853.3 0 800 0C746.7 0 693.3 0 640 0C586.7 0 533.3 0 480 0C426.7 0 373.3 0 320 0C266.7 0 213.3 0 160 0C106.7 0 53.3 0 26.7 0L0 0Z" fill="#7b2cbf"></path></svg>